<?xml version='1.0' encoding='utf-8'?>
<svg xmlns="http://www.w3.org/2000/svg" height="497" version="1.1" viewBox="0 0 850 500" width="848" xml:space="preserve"><defs><style>.cls-1,.cls-12,.cls-17,.cls-2,.cls-3,.cls-8{fill:none}.cls-1,.cls-2,.cls-3,.cls-4,.cls-7,.cls-8,.cls-9{stroke:#1d1d1b;}.cls-1,.cls-11,.cls-12,.cls-17,.cls-2,.cls-3,.cls-4,.cls-7,.cls-8,.cls-9{stroke-miterlimit:10}.cls-2{stroke-linecap:round}.cls-3,.cls-4,.cls-7,.cls-8,.cls-9{stroke-width:0.5px}.cls-11,.cls-4,.cls-9{fill:#fff;}.cls-10,.cls-13,.cls-14,.cls-15,.cls-16,.cls-18,.cls-19,.cls-20,.cls-5,.cls-6{isolation: isolate}.cls-20,.cls-5,.cls-6{font-size:13.34px}.cls-5{fill:#be1622;}.cls-10,.cls-14,.cls-15,.cls-16,.cls-18,.cls-19,.cls-20,.cls-5,.cls-6{font-family:Arial-ItalicMT, Arial; font-style:italic; text-align: center;}.cls-6,.cls-7{fill:#1d1d1b;}.cls-8,.cls-9{stroke-linecap: square}.cls-10,.cls-16{font-size:10.67px}.cls-10{fill:#575756;}.cls-11,.cls-12 {stroke:#9d9d9c;}.cls-14,.cls-15,.cls-18,.cls-19{font-size: 8px}.cls-14,.cls-15,.cls-16{fill:#9d9d9c;}.cls-15,.cls-19{letter-spacing:-0.01em}.cls-17{stroke:#b2b2b2;}.cls-18,.cls-19{fill:#878787;}.cls-20{fill:#00a19a;}</style></defs><g id="base-layer"><line class="cls-1" id="rail-top" x1="837" x2="130" y1="116" y2="116" /><line class="cls-2" id="buffer-left-top" x1="130" x2="130" y1="120" y2="112" /><line class="cls-2" id="buffer-right-top" x1="837" x2="837" y1="120" y2="112" /><line class="cls-1" id="rail-buttom" x1="837" x2="130" y1="367" y2="367" /><line class="cls-2" id="buffer-left-buttom" x1="130" x2="130" y1="371" y2="364" /><line class="cls-2" id="buffer-right-buttom" x1="837" x2="837" y1="371" y2="364" /><line class="cls-3" id="axis-end" x1="837" x2="837" y1="367" y2="486" /><circle class="cls-4" cx="837" cy="486" id="axis-end-circle" r="11" /><text class="cls-5" id="axis-end-text" transform="translate(829 491)">15</text><line class="cls-3" id="axis-start" x1="130" x2="130" y1="367" y2="486" /><circle class="cls-4" cx="130" cy="486" id="axis-start-circle" r="11" /><text class="cls-5" id="axis-start-text" transform="translate(123 491)">1</text><line class="cls-3" id="length-pointer" x1="130" x2="837" y1="459" y2="459" /><text class="cls-6" id="length" transform="translate(461 456)">75000</text><line class="cls-3" id="axis-a" x1="130" x2="11" y1="116" y2="116" /><circle class="cls-4" cx="11" cy="116" id="axis-a-circle" r="11" /><text class="cls-5" id="axis-a-text" transform="translate(6 120)">А</text><line class="cls-3" id="axis-b" x1="130" x2="11" y1="367" y2="367" /><circle class="cls-4" cx="11" cy="367" id="axis-b-circle" r="11" /><text class="cls-5" id="axis-b-text" transform="translate(6 372)">В</text><line class="cls-3" id="width-pointer" x1="37" x2="37" y1="116" y2="367" /><line class="cls-3" id="top-line" x1="837" x2="130" y1="105" y2="105" /><line class="cls-3" id="button-line" x1="837" x2="130" y1="379" y2="379" /><text class="cls-6" id="width" transform="translate(41 223) rotate(90)">22500</text><polygon class="cls-7" points="33 128 37 116 41 128 37 127 33 128" /><polygon class="cls-7" points="41 355 37 367 33 355 37 356 41 355" /><polygon class="cls-7" points="143 463 130 459 143 456 141 459 143 463" /><polygon class="cls-7" points="825 456 837 459 825 463 826 459 825 456" /></g><g id="position-layer"><rect class="cls-8" height="20" id="position-support-bottom" width="10" x="125" y="359" /><rect class="cls-8" height="20" id="position-support-top" width="10" x="125" y="105" /><line class="cls-8" id="position-axis-support-bottom" x1="130" x2="130" y1="282" y2="359" /><line class="cls-8" id="position-axis-support-top" x1="130" x2="130" y1="125" y2="200" /><line class="cls-8" id="position-axis-support-top" x1="130" x2="130" y1="9" y2="65" /><circle class="cls-9" cx="130" cy="9" id="position-axis-support-top" r="9" /><text class="cls-10" id="position-text" transform="translate(125 12)">1</text><rect class="cls-8" height="20" id="position-support-bottom" width="10" x="175" y="359" /><rect class="cls-8" height="20" id="position-support-top" width="10" x="175" y="105" /><line class="cls-8" id="position-axis-support-bottom" x1="180" x2="180" y1="282" y2="359" /><line class="cls-8" id="position-axis-support-top" x1="180" x2="180" y1="125" y2="200" /><line class="cls-8" id="position-axis-support-top" x1="180" x2="180" y1="9" y2="65" /><circle class="cls-9" cx="180" cy="9" id="position-axis-support-top" r="9" /><text class="cls-10" id="position-text" transform="translate(175 12)">2</text><rect class="cls-8" height="20" id="position-support-bottom" width="10" x="226" y="359" /><rect class="cls-8" height="20" id="position-support-top" width="10" x="226" y="105" /><line class="cls-8" id="position-axis-support-bottom" x1="231" x2="231" y1="282" y2="359" /><line class="cls-8" id="position-axis-support-top" x1="231" x2="231" y1="125" y2="200" /><line class="cls-8" id="position-axis-support-top" x1="231" x2="231" y1="9" y2="65" /><circle class="cls-9" cx="231" cy="9" id="position-axis-support-top" r="9" /><text class="cls-10" id="position-text" transform="translate(226 12)">3</text><rect class="cls-8" height="20" id="position-support-bottom" width="10" x="277" y="359" /><rect class="cls-8" height="20" id="position-support-top" width="10" x="277" y="105" /><line class="cls-8" id="position-axis-support-bottom" x1="282" x2="282" y1="282" y2="359" /><line class="cls-8" id="position-axis-support-top" x1="282" x2="282" y1="125" y2="200" /><line class="cls-8" id="position-axis-support-top" x1="282" x2="282" y1="9" y2="65" /><circle class="cls-9" cx="282" cy="9" id="position-axis-support-top" r="9" /><text class="cls-10" id="position-text" transform="translate(277 12)">4</text><rect class="cls-8" height="20" id="position-support-bottom" width="10" x="327" y="359" /><rect class="cls-8" height="20" id="position-support-top" width="10" x="327" y="105" /><line class="cls-8" id="position-axis-support-bottom" x1="332" x2="332" y1="282" y2="359" /><line class="cls-8" id="position-axis-support-top" x1="332" x2="332" y1="125" y2="200" /><line class="cls-8" id="position-axis-support-top" x1="332" x2="332" y1="9" y2="65" /><circle class="cls-9" cx="332" cy="9" id="position-axis-support-top" r="9" /><text class="cls-10" id="position-text" transform="translate(327 12)">5</text><rect class="cls-8" height="20" id="position-support-bottom" width="10" x="377" y="359" /><rect class="cls-8" height="20" id="position-support-top" width="10" x="377" y="105" /><line class="cls-8" id="position-axis-support-bottom" x1="382" x2="382" y1="282" y2="359" /><line class="cls-8" id="position-axis-support-top" x1="382" x2="382" y1="125" y2="200" /><line class="cls-8" id="position-axis-support-top" x1="382" x2="382" y1="9" y2="65" /><circle class="cls-9" cx="382" cy="9" id="position-axis-support-top" r="9" /><text class="cls-10" id="position-text" transform="translate(377 12)">6</text><rect class="cls-8" height="20" id="position-support-bottom" width="10" x="428" y="359" /><rect class="cls-8" height="20" id="position-support-top" width="10" x="428" y="105" /><line class="cls-8" id="position-axis-support-bottom" x1="433" x2="433" y1="282" y2="359" /><line class="cls-8" id="position-axis-support-top" x1="433" x2="433" y1="125" y2="200" /><line class="cls-8" id="position-axis-support-top" x1="433" x2="433" y1="9" y2="65" /><circle class="cls-9" cx="433" cy="9" id="position-axis-support-top" r="9" /><text class="cls-10" id="position-text" transform="translate(428 12)">7</text><rect class="cls-8" height="20" id="position-support-bottom" width="10" x="479" y="359" /><rect class="cls-8" height="20" id="position-support-top" width="10" x="479" y="105" /><line class="cls-8" id="position-axis-support-bottom" x1="484" x2="484" y1="282" y2="359" /><line class="cls-8" id="position-axis-support-top" x1="484" x2="484" y1="125" y2="200" /><line class="cls-8" id="position-axis-support-top" x1="484" x2="484" y1="9" y2="65" /><circle class="cls-9" cx="484" cy="9" id="position-axis-support-top" r="9" /><text class="cls-10" id="position-text" transform="translate(479 12)">8</text><rect class="cls-8" height="20" id="position-support-bottom" width="10" x="529" y="359" /><rect class="cls-8" height="20" id="position-support-top" width="10" x="529" y="105" /><line class="cls-8" id="position-axis-support-bottom" x1="534" x2="534" y1="282" y2="359" /><line class="cls-8" id="position-axis-support-top" x1="534" x2="534" y1="125" y2="200" /><line class="cls-8" id="position-axis-support-top" x1="534" x2="534" y1="9" y2="65" /><circle class="cls-9" cx="534" cy="9" id="position-axis-support-top" r="9" /><text class="cls-10" id="position-text" transform="translate(529 12)">9</text><rect class="cls-8" height="20" id="position-support-bottom" width="10" x="579" y="359" /><rect class="cls-8" height="20" id="position-support-top" width="10" x="579" y="105" /><line class="cls-8" id="position-axis-support-bottom" x1="584" x2="584" y1="282" y2="359" /><line class="cls-8" id="position-axis-support-top" x1="584" x2="584" y1="125" y2="200" /><line class="cls-8" id="position-axis-support-top" x1="584" x2="584" y1="9" y2="65" /><circle class="cls-9" cx="584" cy="9" id="position-axis-support-top" r="9" /><text class="cls-10" id="position-text" transform="translate(579 12)">10</text><rect class="cls-8" height="20" id="position-support-bottom" width="10" x="630" y="359" /><rect class="cls-8" height="20" id="position-support-top" width="10" x="630" y="105" /><line class="cls-8" id="position-axis-support-bottom" x1="635" x2="635" y1="282" y2="359" /><line class="cls-8" id="position-axis-support-top" x1="635" x2="635" y1="125" y2="200" /><line class="cls-8" id="position-axis-support-top" x1="635" x2="635" y1="9" y2="65" /><circle class="cls-9" cx="635" cy="9" id="position-axis-support-top" r="9" /><text class="cls-10" id="position-text" transform="translate(630 12)">11</text><rect class="cls-8" height="20" id="position-support-bottom" width="10" x="681" y="359" /><rect class="cls-8" height="20" id="position-support-top" width="10" x="681" y="105" /><line class="cls-8" id="position-axis-support-bottom" x1="686" x2="686" y1="282" y2="359" /><line class="cls-8" id="position-axis-support-top" x1="686" x2="686" y1="125" y2="200" /><line class="cls-8" id="position-axis-support-top" x1="686" x2="686" y1="9" y2="65" /><circle class="cls-9" cx="686" cy="9" id="position-axis-support-top" r="9" /><text class="cls-10" id="position-text" transform="translate(681 12)">12</text><rect class="cls-8" height="20" id="position-support-bottom" width="10" x="731" y="359" /><rect class="cls-8" height="20" id="position-support-top" width="10" x="731" y="105" /><line class="cls-8" id="position-axis-support-bottom" x1="736" x2="736" y1="282" y2="359" /><line class="cls-8" id="position-axis-support-top" x1="736" x2="736" y1="125" y2="200" /><line class="cls-8" id="position-axis-support-top" x1="736" x2="736" y1="9" y2="65" /><circle class="cls-9" cx="736" cy="9" id="position-axis-support-top" r="9" /><text class="cls-10" id="position-text" transform="translate(731 12)">13</text><rect class="cls-8" height="20" id="position-support-bottom" width="10" x="781" y="359" /><rect class="cls-8" height="20" id="position-support-top" width="10" x="781" y="105" /><line class="cls-8" id="position-axis-support-bottom" x1="786" x2="786" y1="282" y2="359" /><line class="cls-8" id="position-axis-support-top" x1="786" x2="786" y1="125" y2="200" /><line class="cls-8" id="position-axis-support-top" x1="786" x2="786" y1="9" y2="65" /><circle class="cls-9" cx="786" cy="9" id="position-axis-support-top" r="9" /><text class="cls-10" id="position-text" transform="translate(781 12)">14</text><rect class="cls-8" height="20" id="position-support-bottom" width="10" x="832" y="359" /><rect class="cls-8" height="20" id="position-support-top" width="10" x="832" y="105" /><line class="cls-8" id="position-axis-support-bottom" x1="837" x2="837" y1="282" y2="359" /><line class="cls-8" id="position-axis-support-top" x1="837" x2="837" y1="125" y2="200" /><line class="cls-8" id="position-axis-support-top" x1="837" x2="837" y1="9" y2="65" /><circle class="cls-9" cx="837" cy="9" id="position-axis-support-top" r="9" /><text class="cls-10" id="position-text" transform="translate(832 12)">15</text></g><g id="ferm-layer"><line class="cls-3" x1="236" x2="277.5" y1="125" y2="105" /><line class="cls-3" x1="236" x2="277.5" y1="105" y2="125" /><line class="cls-3" x1="236" x2="277.5" y1="379" y2="359" /><line class="cls-3" x1="236" x2="277.5" y1="359" y2="379" /></g><g id="crane-layer"><rect class="cls-11" height="17" width="30" x="267" y="112" /><rect class="cls-11" height="17" width="30" x="267" y="354" /><line class="cls-12" x1="293" x2="293" y1="129" y2="354" /><line class="cls-12" x1="271" x2="271" y1="129" y2="354" /><text class="cls-14" transform="translate(279 197) rotate(90)">Q=10 тн., Зав.№ 123</text><rect class="cls-11" height="30" width="19" x="291" y="316" /><text class="cls-16" transform="translate(297 328) rotate(90)">K</text><rect class="cls-11" height="17" width="30" x="721" y="112" /><rect class="cls-11" height="17" width="30" x="721" y="354" /><line class="cls-12" x1="747" x2="747" y1="129" y2="354" /><line class="cls-12" x1="725" x2="725" y1="129" y2="354" /><text class="cls-14" transform="translate(733 197) rotate(90)">Q=10 тн., Зав.№ 001</text><rect class="cls-11" height="30" width="19" x="708" y="227" /><text class="cls-16" transform="translate(714 239) rotate(90)">K</text></g><g id="text-layer" /></svg>